# xmcd
#
# Track frame offsets:
#	150
#	16243
#	33432
#	49245
#	64336
#	82228
#	100752
#	119706
#	138569
#	152543
#
# Disc length: 2225 seconds
#
# Revision: 1
# Processed by: cddbd v1.5.2PL0 Copyright (c) Steve Scherf et al.
# Submitted via: audiograbber 1.83.01
#
DISCID=8908af0a
DTITLE=Compilation - Christian Country Vol. 133
DYEAR=2007
DGENRE=Christian Country
TTITLE0=Mike Manual - Granny's Song
TTITLE1=John Sines Jr. - Blinded Eyes
TTITLE2=Amanda Fessant - Just Like Emilee
TTITLE3=Lesa Hudson - Lukewarm Christian
TTITLE4=Russ Wilson - Spirit Song
TTITLE5=The Claybornes - Almost Home
TTITLE6=Carl Lavon Bell - He'll Take The Pain Away
TTITLE7=Albert Fugett - Reasons
TTITLE8=Amber Morgan - America
TTITLE9=John Jacaruso - The Reason We're Free
EXTD=HMG
EXTT0=
EXTT1=
EXTT2=
EXTT3=
EXTT4=
EXTT5=
EXTT6=
EXTT7=
EXTT8=
EXTT9=
PLAYORDER=
